# xmcd
#
# Track frame offsets:
#	150
#	49155
#	63875
#	75930
#	90727
#	103105
#	118550
#	131367
#	140297
#	154920
#	161725
#	176985
#	190362
#	226130
#	240982
#	255215
#	267215
#	281675
#	296815
#	309262
#	324210
#	340420
#
# Disc length: 4733
#
# Revision: 1
# Processed by: cddbd v1.5.1PL0 Copyright (c) Steve Scherf et al.
# Submitted via: audiograbber 1.80
# Normalized: r0:TDELIM( - )
#
DISCID=2c127b16
DTITLE=Friedrich Hollaender - Tonfilmschlager
DYEAR=1900
DGENRE=
TTITLE0=Marlene Dietrich and Rosa Valetti - Der blaue Engel
TTITLE1=Weintraub Syncopators - Ich bin von Kopf bis Fuss auf Liebe eingestellt
TTITLE2=Marlene Dietrich - Ich bin die fesche Lola
TTITLE3=Marlene Dietrich - Nimm dich in acht vor blonden Frau'n
TTITLE4=Marlene Dietrich - Kinder, heut' abend
TTITLE5=Marlene Dietrich - Ich bin von Kopf bis Fuss auf Liebe eingestellt
TTITLE6=Weintraub Syncopators - Nimm dich in acht vor blonden Frau'n
TTITLE7=Marlene Dietrich - Wenn ich mir was wünschen dürfte
TTITLE8=Greta Keller - Wenn ich mir was wünschen dürfte
TTITLE9=Heinrich George and Käthe von Hagy - Du hast ja eine Träne im Knopfloch
TTITLE10=Das Columbia-Tanzorchestra - Du Hast ja eine Träne im Knopfloch
TTITLE11=Camilla Horn - Ich wünsche mir was
TTITLE12=Ralph Arthur Roberts, Heinz Rühmann u.a. - Einbrecher
TTITLE13=Lilian Harvey and Willy Fritsch - Eine liebelei, so nebenbei
TTITLE14=Lilian Harvey - Lass mich einmal deine Carmen sein
TTITLE15=Willy Fritsch - Ich lass mir meinen Körper schwarz bepinseln
TTITLE16=Greta Keller and Joe Sargent - Kind, dein Mund ist Musik
TTITLE17=Mady Christians - Also, das ist die Liebe
TTITLE18=Mady Christians - Cocktail-Lied
TTITLE19=Comedian Harmonists - Baby! (Wo ist mein Baby?)
TTITLE20=Anna Sten - Ich weiss nicht, zu wem ich gehöre
TTITLE21=Lilian Harvey - Wie hab' ich nur leben können ohne dich
EXTD=
EXTT0=
EXTT1=
EXTT2=
EXTT3=
EXTT4=
EXTT5=
EXTT6=
EXTT7=
EXTT8=
EXTT9=
EXTT10=
EXTT11=
EXTT12=
EXTT13=
EXTT14=
EXTT15=
EXTT16=
EXTT17=
EXTT18=
EXTT19=
EXTT20=
EXTT21=
PLAYORDER=
